<svg width="130" height="33" viewBox="0 0 130 33" fill="none" xmlns="http://www.w3.org/2000/svg">
<path d="M21.2622 4.58632L6.74104 4.57388L4.49499 6.85863L21.2622 6.86741C23.8252 6.86741 25.896 8.91358 25.896 11.4347V32.8324H28.2206L28.2279 11.4347C28.2279 7.65192 25.1086 4.58632 21.2622 4.58632ZM32.8763 32.8324L32.8741 11.4347C32.8741 5.13226 27.6745 0.00146364 21.2614 0.00146364L11.2324 0L8.98708 2.28474L21.2622 2.28767C26.3912 2.28767 30.5488 6.39172 30.5488 11.4347V32.8324H32.8763ZM21.2622 9.15142L2.25259 9.14703L0 11.4303H0.0305386L0 11.4347L0.00072711 21.4028C0.00072711 27.2164 4.40265 32.0296 10.125 32.7461L12.2707 30.5528L11.6141 30.5491C6.48291 30.5491 2.32384 26.4436 2.32384 21.4028V11.431H4.65205L4.64623 21.4028C4.64623 25.182 7.76553 28.249 11.6141 28.249H14.5313L16.7737 25.9665H11.6141C9.04961 25.9665 6.97953 23.9218 6.97953 21.4028V11.431H9.28374L9.28592 21.4028C9.29319 22.663 10.3301 23.681 11.6134 23.681H19.0147L21.2542 21.405L11.6134 21.4028V11.4325L21.2614 11.4347V32.8324H23.5904L23.5896 11.4347C23.5824 10.1723 22.5448 9.15142 21.2622 9.15142Z" fill="#569BBE"/>
<path d="M98.9677 17.1378V12.6729H106.505V10.8434H98.9677V6.49857H107.393V4.66682H97.0096V18.9673H107.491V17.1378H98.9677ZM49.3417 22.0798H49.2355L49.1774 22.1691L45.5883 27.5787L42.0001 22.1691L41.9412 22.0798H40.4586V32.8507H41.9906V24.9156L45.3797 29.9198L45.4386 30.0061H45.709L45.7679 29.9198L49.1577 24.9031V32.8514H50.7188V22.0805H49.3417V22.0798ZM109.278 31.3688V22.0798H107.719V32.8507H113.344V31.3688H109.278ZM41.6969 18.9681L41.7499 18.851L43.3343 15.2958H50.5938L52.1592 18.8502L52.2109 18.9681H54.3268L54.1988 18.6863L47.9056 4.68585L47.854 4.56803H46.1351L46.0828 4.68585L39.7882 18.6863L39.6602 18.9681H41.6969ZM46.9749 7.08622L49.8063 13.4845H44.1254L46.9749 7.08622ZM57.9056 18.9681H58.1034V14.0641H61.2597C64.0598 14.0641 66.8847 12.5961 66.8847 9.31608V9.27583C66.8847 6.47662 64.7775 4.66682 61.515 4.66682H56.1474V18.9673H57.9056V18.9681ZM58.1041 6.51687H61.3979C63.6287 6.51687 64.9084 7.54434 64.9084 9.33584V9.37609C64.9084 11.1112 63.4992 12.2331 61.3179 12.2331H58.1034L58.1041 6.51687ZM93.947 18.9681V4.66682H91.9896V18.9673H93.947V18.9681ZM118.999 26.7056C116.767 26.2241 116.358 25.7155 116.358 24.8878V24.8585C116.358 23.9906 117.178 23.3846 118.352 23.3846C119.397 23.3846 120.302 23.7286 121.2 24.4655L121.36 24.598L121.486 24.4311L122.279 23.3729L122.128 23.2507C120.985 22.3264 119.866 21.9319 118.383 21.9319C116.307 21.9319 114.798 23.2068 114.798 24.9631V24.9924C114.798 26.983 116.243 27.706 118.414 28.1802C120.546 28.6318 120.937 29.1331 120.937 29.9542V29.9834C120.937 30.918 120.094 31.5466 118.839 31.5466C117.529 31.5466 116.545 31.1368 115.44 30.1313L115.286 29.9937L115.152 30.151L114.308 31.1595L114.452 31.2905C115.75 32.4563 117.13 33 118.795 33C120.983 33 122.511 31.712 122.511 29.8671V29.8363C122.511 28.1832 121.461 27.2472 118.999 26.7056ZM114.891 18.9681C119.261 18.9681 122.43 15.9632 122.43 11.8174V11.7779C122.43 7.65704 119.261 4.66609 114.891 4.66609H109.898V18.9673H114.891V18.9681ZM111.855 6.51687H114.891C118.143 6.51687 120.415 8.69696 120.415 11.8174V11.8577C120.415 14.9548 118.143 17.118 114.891 17.118H111.855V6.51687ZM58.4007 22.1237L58.3469 22.0059H57.0003L52.2516 32.5675L52.1251 32.8507H53.7545L53.8083 32.7322L54.9753 30.11H60.3261L61.4793 32.7314L61.5324 32.8507H63.2222L63.0942 32.5675L58.4007 22.1237ZM55.6116 28.6574L57.6569 24.0608L59.6921 28.6574H55.6116ZM89.7683 18.9681V17.1195H83.5253V4.66682H81.5679V18.9673H89.7683V18.9681ZM87.4103 28.5337C89.0739 28.1217 90.0664 26.9705 90.0664 25.3913V25.362C90.0664 24.505 89.7632 23.7293 89.2128 23.176C88.5111 22.4691 87.4204 22.0798 86.1422 22.0798H81.5134V32.8507H83.073V28.8213H85.7175L88.7074 32.8507H90.6343L90.3936 32.5294L87.4103 28.5337ZM83.0738 27.3679V23.5632H86.0549C87.6037 23.5632 88.4915 24.2342 88.4915 25.4074V25.4366C88.4915 26.6105 87.5302 27.3686 86.0411 27.3686L83.0738 27.3679ZM73.1974 28.1561H78.8202V26.6873H73.1974V23.5493H79.4818V22.0812H71.6363V32.8522H79.556V31.3856H73.1974V28.1561ZM92.1976 22.0798V32.8507H93.7594V22.0798H92.1976ZM79.6236 9.31535V9.2751C79.6236 6.47588 77.5165 4.66609 74.2547 4.66609H68.8864V18.9673H70.8438V14.0634H73.9987C76.7988 14.0641 79.6236 12.5961 79.6236 9.31535ZM70.8438 6.51687H74.1361C76.3662 6.51687 77.6466 7.54434 77.6466 9.33584V9.37609C77.6466 11.1112 76.2375 12.2331 74.0569 12.2331H70.8431L70.8438 6.51687ZM61.5535 22.0798V23.5632H65.0109V32.8507H66.5909V23.5632H70.0483V22.0798H61.5535ZM101.489 22.1237L101.435 22.0059H100.09L100.039 22.1237L95.343 32.5675L95.2151 32.8507H96.8438L96.8983 32.7322L98.0653 30.11H103.416L104.571 32.7314L104.622 32.8507H106.313L106.185 32.5675L101.489 22.1237ZM98.7015 28.6574L100.747 24.0608L102.782 28.6574H98.7015Z" fill="#569BBE"/>
<path d="M125.008 30.4891V30.4738C125.008 29.1074 126.111 27.9636 127.511 27.9636C128.909 27.9636 130 29.0935 130 30.462V30.4738C130 31.8415 128.896 32.989 127.497 32.989C126.098 32.9883 125.008 31.8576 125.008 30.4891ZM129.773 30.4738V30.462C129.773 29.2048 128.8 28.1788 127.512 28.1788C126.215 28.1788 125.235 29.2187 125.235 30.4738V30.4891C125.235 31.7442 126.207 32.7702 127.497 32.7702C128.792 32.7702 129.773 31.7303 129.773 30.4738ZM126.524 29.1148H127.67C127.993 29.1148 128.261 29.2187 128.427 29.3855C128.552 29.5026 128.634 29.6775 128.634 29.8832V29.8985C128.634 30.315 128.357 30.563 127.974 30.6538L128.766 31.6893H128.296L127.559 30.7175H126.903V31.6893H126.524L126.524 29.1148ZM127.634 30.3764C127.994 30.3764 128.244 30.2118 128.244 29.9198V29.9066C128.244 29.6351 128.022 29.4602 127.657 29.4602H126.904V30.3764H127.634Z" fill="#569BBE"/>
</svg>
