<svg width="127" height="21" viewBox="0 0 127 21" fill="none" xmlns="http://www.w3.org/2000/svg">
<path d="M103.83 16.3634H89.5521C88.7092 16.3634 88.3468 16.1021 88.3468 15.2759V0.641227C88.3468 0.0426876 88.1192 0.00896704 87.6725 0.00896704H82.9105C82.43 0.00896704 82.2699 0.00896702 82.2699 0.641227V14.7701C82.2699 19.4741 83.9556 21 88.5322 21H103.897C104.462 21 104.462 20.8145 104.462 20.334V17.0547C104.462 16.5826 104.462 16.3634 103.83 16.3634ZM77.7523 0.00896704H62.3704C58.1562 0.00896704 55.6276 1.34936 55.6276 5.76675V15.2506C55.6276 19.668 58.1562 21 62.421 21H77.7523C78.3591 21 78.3254 20.8145 78.3254 20.3677V17.0884C78.3254 16.6416 78.3254 16.4562 77.7523 16.4562H62.6822C62.008 16.4562 61.6624 16.2033 61.6624 15.5288V12.6542H77.3393C77.9461 12.6542 77.9124 12.4603 77.9124 12.0219V8.78474C77.9124 8.31265 77.9124 8.15248 77.3393 8.15248H61.6624V5.48012C61.6624 4.81414 62.008 4.56124 62.6822 4.56124H77.7523C78.3591 4.56124 78.3254 4.36735 78.3254 3.89526V0.641227C78.3254 0.20286 78.3844 0.00896704 77.7523 0.00896704ZM51.6157 0.00896704H36.2422C32.028 0.00896704 29.4405 1.34936 29.4405 5.76675V15.2506C29.4405 19.668 32.0449 21 36.2422 21H51.6157C52.2141 21 52.2141 20.8145 52.2141 20.3677V17.0884C52.2141 16.6416 52.2141 16.4562 51.6157 16.4562H36.571C35.9051 16.4562 35.5511 16.2033 35.5511 15.5288V12.6542H51.1943C51.8011 12.6542 51.8011 12.4603 51.8011 12.0219V8.78474C51.8011 8.31265 51.8011 8.15248 51.1943 8.15248H35.5511V5.48012C35.5511 4.81414 35.9051 4.56124 36.571 4.56124H51.6157C52.2141 4.56124 52.2141 4.36735 52.2141 3.89526V0.641227C52.2563 0.20286 52.2563 0.00896704 51.6157 0.00896704ZM24.8976 0.00896704H6.83546C2.57067 0.00896704 0 1.34936 0 5.76675V15.2506C0 19.668 2.57067 21 6.83546 21H24.8976C25.5044 21 25.4707 20.8145 25.4707 20.3677V8.78474C25.4707 8.31265 25.4707 8.15248 24.8976 8.15248H9.97926C9.38084 8.15248 9.41456 8.31265 9.41456 8.78474V12.0388C9.41456 12.4771 9.41456 12.671 9.97926 12.671H19.3854V16.4562H7.08831C6.44775 16.4562 6.0769 16.2033 6.0769 15.5288V5.48012C6.0769 4.81414 6.44775 4.56124 7.08831 4.56124H24.8976C25.5044 4.56124 25.4707 4.36735 25.4707 3.89526V0.641227C25.4707 0.20286 25.5044 0.00896704 24.8976 0.00896704ZM126.477 0.00896704H120.973C120.642 -0.0214932 120.307 0.0258964 119.997 0.147366C119.687 0.268835 119.409 0.461033 119.186 0.708668L111.601 9.01235L104.057 0.708668C103.827 0.460919 103.544 0.26907 103.228 0.147796C102.913 0.0265217 102.574 -0.0209652 102.237 0.00896704H96.7415C96.3032 0.00896704 96.101 0.236581 96.6488 0.8014L108.567 13.9103V20.4015C108.567 21 108.76 21 109.241 21H114.003C114.45 21 114.644 21 114.644 20.4015V13.9103L126.595 0.8014C127.109 0.236581 126.949 0.00896704 126.477 0.00896704Z" fill="#0070B2"/>
</svg>
