<svg width="44" height="44" viewBox="0 0 44 44" fill="none" xmlns="http://www.w3.org/2000/svg">
<path d="M5.67742 0C2.54187 0 0 2.54187 0 5.67742V38.3226C0 41.4581 2.54187 44 5.67742 44H38.3226C41.4581 44 44 41.4581 44 38.3226V5.67742C44 2.54187 41.4581 0 38.3226 0H5.67742ZM5.67742 2.83871H38.3226C39.8904 2.83871 41.1613 4.10964 41.1613 5.67742V38.3226C41.1613 39.8904 39.8904 41.1613 38.3226 41.1613H5.67742C4.10964 41.1613 2.83871 39.8904 2.83871 38.3226V5.67742C2.83871 4.10964 4.10964 2.83871 5.67742 2.83871Z" fill="#0671D8"/>
<path d="M19.871 29.8064V32.6452H35.4839V29.8064H19.871Z" fill="#0671D8"/>
<path d="M19.871 11.3548V26.6129H23.0645V14.1935H26.2581V26.6129H29.4516V14.1935H31.5806C32.1686 14.1935 32.6452 14.6701 32.6452 15.2581V26.6129H35.8387V14.9032C35.8387 12.9435 34.25 11.3548 32.2903 11.3548H19.871Z" fill="#0671D8"/>
<path d="M11.7097 11.3548C9.74996 11.3548 8.16129 12.9435 8.16129 14.9032V23.0645C8.16129 25.0242 9.74996 26.6129 11.7097 26.6129H14.5484V27.3226C14.5484 28.6944 13.2775 29.8064 11.7097 29.8064H9.93548V32.6452H11.7097C15.0412 32.6452 17.7419 30.2622 17.7419 27.3226V11.3548H11.7097ZM12.4194 14.1935H14.5484V23.7742H12.4194C11.8314 23.7742 11.3548 23.2976 11.3548 22.7097V15.2581C11.3548 14.6701 11.8314 14.1935 12.4194 14.1935Z" fill="#0671D8"/>
</svg>
