<svg width="149" height="20" viewBox="0 0 149 20" fill="none" xmlns="http://www.w3.org/2000/svg">
<path d="M57.229 2.82419V8.29518H50.8749V2.82419H47.3726V17.18H50.8749V11.408H57.229V17.18H60.7314V2.82419H57.229Z" fill="#002E6B"/>
<path d="M73.5621 2.82419L69.8992 8.50956L66.2405 2.82419H62.1087L68.1543 12.2078V17.18H71.6525V12.2078L77.6981 2.82419H73.5621Z" fill="#002E6B"/>
<path d="M88.9572 2.82419V13.3457C88.9572 13.7456 88.6488 14.0672 88.2136 14.0672H82.6031V2.82419H79.1008V17.18H89.4473C90.3683 17.18 91.1076 16.9118 91.6484 16.3883C92.185 15.8606 92.4553 15.1391 92.4553 14.2445V2.82419H88.9572Z" fill="#002E6B"/>
<path d="M106.047 2.82419H95.7V17.18H99.1981V5.93279H104.817C105.269 5.93279 105.556 6.27912 105.556 6.65016V17.18H109.055V5.75968C109.055 4.86091 108.78 4.13939 108.248 3.61579C107.703 3.08806 106.968 2.82419 106.047 2.82419Z" fill="#002E6B"/>
<path d="M122.646 2.82419H112.299V17.18H122.646C123.567 17.18 124.302 16.9118 124.838 16.3883C125.379 15.8606 125.65 15.1391 125.65 14.2445V5.75968C125.65 4.86091 125.379 4.13939 124.838 3.61579C124.302 3.08806 123.562 2.82419 122.646 2.82419ZM122.151 6.67491V13.3251C122.151 13.7126 121.864 14.0672 121.408 14.0672H115.793V5.93279H121.382C121.843 5.93279 122.151 6.24615 122.151 6.67491Z" fill="#002E6B"/>
<path d="M131.75 2.82419C130.833 2.82419 130.09 3.08806 129.553 3.61579C129.012 4.14352 128.746 4.86503 128.746 5.75968V17.18H132.236V12.7396H138.594V17.18H142.092V2.82419H131.75ZM138.594 5.93279V9.63103H132.236V6.66258C132.236 6.30802 132.519 5.93279 132.984 5.93279H138.594Z" fill="#002E6B"/>
<path d="M145.498 17.18H149V2.82419H145.498V17.18Z" fill="#002E6B"/>
<path d="M20.0086 20C31.0607 20 40.0215 15.5226 40.0215 10.0021C40.0215 4.47748 31.0607 0 20.0086 0C8.96079 0 0 4.47748 0 10.0021C0 15.5226 8.96079 20 20.0086 20ZM23.7771 15.0938C23.4434 15.8483 22.8688 17.4603 21.5507 18.1034C21.1493 18.2973 20.655 18.388 20.2156 18.4045C20.1141 18.4045 20.0424 18.4045 20.0127 18.4045C16.3202 18.4045 12.8812 17.9014 10.0041 17.048C9.98267 17.039 9.91554 17.0151 9.89439 17.0067C9.62828 16.9202 9.49301 16.8006 9.49301 16.6522C9.49301 16.5244 9.56479 16.4254 9.65768 16.3347C9.69999 16.2976 9.75914 16.2483 9.83947 16.1779C10.507 15.6379 12.5053 14.2237 16.2738 12.8137C17.5962 12.3231 19.2523 11.7088 20.9844 11.3501C21.9984 11.144 25.767 10.5793 23.7771 15.0938ZM33.887 5.01328C33.9587 4.89361 34.0519 4.79066 34.2249 4.78229C34.3178 4.77331 34.4448 4.79425 34.639 4.91422C36.988 6.32424 38.3821 8.08884 38.3821 9.99772C38.3821 13.4444 33.8405 16.4087 27.3428 17.7033C26.9287 17.7858 26.6499 17.7817 26.557 17.6793C26.4895 17.6174 26.4727 17.5062 26.557 17.3702C26.595 17.3002 26.6415 17.2382 26.7301 17.135C30.2663 13.0657 32.9617 7.06281 33.7264 5.3312C33.7856 5.21153 33.8404 5.09167 33.887 5.01328ZM16.3035 4.8861C16.6372 4.13162 17.2118 2.51951 18.53 1.88048C18.9313 1.68661 19.4256 1.59181 19.865 1.57955C19.9665 1.57656 20.0382 1.57955 20.0637 1.57955C23.7603 1.57955 27.1951 2.0784 30.0764 2.93595C30.0979 2.94493 30.165 2.96884 30.1861 2.97722C30.4523 3.06368 30.5875 3.18333 30.5875 3.33175C30.5875 3.4595 30.5158 3.55436 30.4229 3.6451C30.3805 3.68639 30.3214 3.73575 30.2411 3.80187C29.5778 4.34609 27.5752 5.75611 23.8067 7.16613C22.4801 7.66086 20.8282 8.27103 19.1003 8.62972C18.0821 8.84004 14.3136 9.40062 16.3035 4.8861ZM12.6744 2.2929C13.0926 2.21452 13.3673 2.2145 13.4686 2.31682C13.5278 2.38264 13.5447 2.49006 13.4656 2.62607C13.4233 2.69608 13.377 2.76222 13.2924 2.85706C9.75625 6.93044 7.06085 12.9291 6.29192 14.6649C6.23704 14.7845 6.17788 14.9039 6.13128 14.9823C6.06352 15.102 5.96664 15.205 5.7975 15.2133C5.7046 15.2223 5.57367 15.1954 5.37923 15.0814C3.03025 13.6714 1.6361 11.9068 1.6361 9.9979C1.6361 6.55119 6.17771 3.58692 12.6754 2.29235" fill="#002E6B"/>
</svg>
