<svg width="182" height="25" viewBox="0 0 182 25" fill="none" xmlns="http://www.w3.org/2000/svg">
<path d="M3.32065 20.3645V24.1013L0.586148 20.3645H0V20.4078L0.311105 20.8712V24.9212H0.78488V21.4908L3.32065 24.9212H3.79526V20.3645L3.32065 20.3645Z" fill="black"/>
<path d="M10.3657 20.3645V24.9212H12.7472V24.468H10.8403V22.8521H12.6172V22.4082H10.8403V20.8101H12.7472V20.3645H10.3657Z" fill="black"/>
<path d="M24.2595 20.3645L23.1644 24.2931L21.8965 20.3645H21.4043L21.5603 20.8356L20.2664 24.2931L19.1796 20.3645H18.6446L19.9729 24.9212H20.5079L21.7934 21.4738L22.9313 24.9212H23.4663L24.7945 20.3645H24.2595Z" fill="black"/>
<path d="M41.2567 20.3645V22.4082H38.5574V20.3645H38.0828V24.9212H38.5574V22.8521H41.2567V24.9212H41.7313V20.3645H41.2567Z" fill="black"/>
<path d="M49.8721 24.5113C50.9069 24.5113 51.701 23.6991 51.701 22.6433C51.701 21.5867 50.9069 20.766 49.8721 20.766C48.8281 20.766 48.0441 21.5867 48.0441 22.6433C48.0441 23.6991 48.8281 24.5113 49.8721 24.5113ZM49.8721 20.2949C51.1911 20.2949 52.1924 21.299 52.1924 22.6433C52.1924 23.9792 51.1911 25.0001 49.8721 25.0001C48.5522 25.0001 47.5435 23.9792 47.5435 22.6433C47.5435 21.299 48.5522 20.2949 49.8721 20.2949Z" fill="black"/>
<path d="M59.7033 20.81H58.9092V22.5117H59.7033C60.2123 22.5117 60.609 22.207 60.609 21.674C60.609 21.1326 60.2123 20.81 59.7033 20.81ZM58.4355 20.3645H59.7033C60.531 20.3645 61.1004 20.8363 61.1004 21.6214C61.1004 22.2851 60.6861 22.678 60.1427 22.8087C60.6777 23.054 61.1691 23.8127 61.3502 24.9211H60.8588C60.6434 23.7516 60.0312 22.9657 59.4358 22.9657H58.9092V24.9211H58.4355V20.3645Z" fill="black"/>
<path d="M67.2604 20.3649H67.735V24.9216H67.2604V20.3649Z" fill="black"/>
<path d="M75.1818 24.4678H77.2782V24.9219H74.6125V24.5026L76.6912 20.8099H74.682V20.3652H77.2782V20.7751L75.1818 24.4678Z" fill="black"/>
<path d="M85.3928 24.5113C86.4276 24.5113 87.2217 23.6991 87.2217 22.6433C87.2217 21.5867 86.4276 20.766 85.3928 20.766C84.3497 20.766 83.5648 21.5867 83.5648 22.6433C83.5648 23.6991 84.3497 24.5113 85.3928 24.5113ZM85.3928 20.2949C86.7127 20.2949 87.7131 21.299 87.7131 22.6433C87.7131 23.9792 86.7127 25.0001 85.3928 25.0001C84.0738 25.0001 83.0642 23.9792 83.0642 22.6433C83.0642 21.299 84.0738 20.2949 85.3928 20.2949Z" fill="black"/>
<path d="M94.4478 21.4907V24.9212H93.9732V20.8712L93.6629 20.4086V20.3646H94.2491L96.9836 24.1015V20.3646H97.4582V24.9213H96.9836L94.4478 21.4907Z" fill="black"/>
<path d="M106.09 21.1157C105.848 20.9062 105.504 20.7491 105.098 20.7491C104.589 20.7491 104.261 21.0368 104.261 21.4476C104.261 21.7089 104.391 21.9008 104.675 22.0841L105.521 22.6349C106.082 22.9837 106.279 23.3155 106.279 23.7781C106.279 24.4155 105.806 25.0002 104.882 25.0002C104.408 25.0002 104.029 24.8431 103.778 24.7032V24.1269C104.02 24.328 104.391 24.5377 104.865 24.5377C105.469 24.5377 105.77 24.1795 105.77 23.8044C105.77 23.5336 105.607 23.2977 105.27 23.0796L104.434 22.5297C103.933 22.2241 103.752 21.8923 103.752 21.456C103.752 20.8883 104.14 20.295 105.124 20.295C105.529 20.295 105.866 20.4078 106.09 20.5479V21.1157Z" fill="black"/>
<path d="M0.000976562 0.317602H3.29395V17.2348H0.000976562V0.317602Z" fill="#EE3042"/>
<path d="M5.98694 0.31733H9.65642L14.0152 13.3627L18.3739 0.31733H22.0744L15.865 17.2345H12.1964L5.98694 0.31733Z" fill="#EE3042"/>
<path d="M27.7166 10.2517H31.6368L29.6612 4.66558L27.7166 10.2517ZM32.7026 13.4573H26.5879L25.3016 17.2348H21.6011L27.8424 0.31768H31.511L37.7205 17.2348H34.0199L32.7026 13.4573Z" fill="#EE3042"/>
<path d="M43.7724 7.10958V17.2346H40.4794V2.41203L39.3188 0.539796V0.317486H43.239L50.8908 11.4575V0.317486H54.1837V17.2346H50.8908L43.7724 7.10958Z" fill="#EE3042"/>
<path d="M69.9044 10.3153H61.9701V17.2348H58.6772V0.317602H61.9701V7.10974H69.9044V0.317602H73.1974V17.2348H69.9044V10.3153Z" fill="#EE3042"/>
<path d="M85.4109 14.1878C88.4196 14.1878 90.6778 11.8072 90.6778 8.79171C90.6778 5.74488 88.4196 3.36428 85.4109 3.36428C82.4315 3.36428 80.1423 5.74488 80.1423 8.79171C80.1423 11.8072 82.4315 14.1878 85.4109 14.1878ZM85.4109 0C90.3331 0 94.0957 3.77675 94.0957 8.79171C94.0957 13.7753 90.3331 17.552 85.4109 17.552C80.4878 17.552 76.7554 13.7753 76.7554 8.79171C76.7554 3.77675 80.4878 0 85.4109 0Z" fill="#EE3042"/>
<path d="M97.457 17.2346V0.317447H106.928V3.52299H100.75V7.10962H106.426V10.3151H100.75V14.0291H106.928V17.2346H97.457Z" fill="#EE3042"/>
<path d="M120.882 17.2346L114.987 4.03049V17.2346H113.262V0.666246H115.269L121.635 15.0441L128.002 0.666246H130.009V17.2346H128.252V4.03049L122.418 17.2346H120.882Z" fill="#EE3042"/>
<path d="M135.37 0.666441H137.095V17.2348H135.37V0.666441Z" fill="#EE3042"/>
<path d="M144.275 4.76088V17.2342H142.551V2.50672L141.422 0.824603V0.66679H143.554L153.496 14.2511V0.66679H155.221V17.2343H153.496L144.275 4.76088Z" fill="#EE3042"/>
<path d="M159.877 17.2346V0.666246H168.532V2.28556H161.602V8.09323H168.062V9.71254H161.602V15.5839H168.532V17.2346H159.877Z" fill="#EE3042"/>
<path d="M181.311 3.39602C180.432 2.63474 179.178 2.06274 177.704 2.06274C175.854 2.06274 174.662 3.11089 174.662 4.60206C174.662 5.55428 175.133 6.25276 176.167 6.91899L179.241 8.91853C181.28 10.1882 182 11.3942 182 13.0763C182 15.3941 180.275 17.5201 176.92 17.5201C175.196 17.5201 173.816 16.949 172.906 16.4414V14.346C173.784 15.0759 175.133 15.838 176.858 15.838C179.053 15.838 180.151 14.5369 180.151 13.1722C180.151 12.1877 179.554 11.3314 178.331 10.537L175.289 8.53745C173.471 7.42734 172.812 6.22051 172.812 4.63429C172.812 2.5711 174.223 0.412009 177.798 0.412009C179.272 0.412009 180.496 0.825336 181.311 1.33286V3.39602Z" fill="#EE3042"/>
</svg>
