<svg width="94" height="40" viewBox="0 0 94 40" fill="none" xmlns="http://www.w3.org/2000/svg">
<g clip-path="url(#clip0)">
<path fill-rule="evenodd" clip-rule="evenodd" d="M40.9617 20.0044C40.9617 31.0558 31.7827 40 20.4809 40C9.16154 40 0 31.0558 0 20.0044C0 8.95247 9.16154 0 20.4809 0C31.7827 0 40.9617 8.95247 40.9617 20.0044ZM20.4862 3.24139C20.6807 3.24139 21.0876 3.25434 21.3017 3.26469V4.82401C21.1009 4.81365 20.6653 4.81365 20.4862 4.81365H20.4862C16.3285 4.81365 12.43 6.39368 9.49593 9.25752C6.55231 12.1239 4.93027 15.9505 4.93027 19.9956C4.93027 24.064 6.55231 27.8709 9.49593 30.7285C12.43 33.5981 16.3285 35.1781 20.4862 35.1781C28.6997 35.1781 35.4454 28.9263 35.9849 21.0329C35.9923 20.9905 35.9923 20.8268 35.9923 20.7931H25.3815V19.2509H37.6255V19.9961C37.6255 24.4809 35.8338 28.6845 32.5961 31.8456C29.3589 34.9994 25.0566 36.7421 20.4862 36.7421C15.8983 36.7421 11.5949 34.9994 8.35187 31.8456C5.12209 28.6845 3.33896 24.4809 3.33896 19.9961C3.33896 10.763 11.0327 3.24139 20.4862 3.24139ZM13.9408 16.0137C15.2989 16.0137 16.3937 14.9344 16.3937 13.6165C16.3937 12.2974 15.2989 11.214 13.9408 11.214C12.5826 11.214 11.4879 12.2974 11.4879 13.6165C11.4879 14.9355 12.5826 16.0137 13.9408 16.0137ZM19.6569 11.2254V28.7746H25.3656V27.1966H21.3022V11.2254H19.6569Z" fill="#A50034"/>
<path d="M56.3644 6.73329H50.2101V32.7709H69.1129V27.7025H56.3644V6.73329ZM82.6514 22.8485H87.6638V27.4011C86.7397 27.745 84.9374 28.0878 83.2227 28.0878C77.6836 28.0878 75.8384 25.3384 75.8384 19.7542C75.8384 14.4289 77.5956 11.289 83.1347 11.289C86.2129 11.289 87.9711 12.2347 89.4199 14.0394L93.2464 10.6013C90.9158 7.33869 86.8266 6.35059 83.0033 6.35059C74.3849 6.35059 69.8579 10.9472 69.8579 19.7107C69.8579 28.4317 73.9461 33.1573 82.9598 33.1573C87.0915 33.1573 91.1363 32.1267 93.3333 30.6233V17.9924H82.6514V22.8485Z" fill="#6B6B6B"/>
</g>
<defs>
<clipPath id="clip0">
<rect width="93.3333" height="40" fill="white"/>
</clipPath>
</defs>
</svg>
