<svg width="77" height="24" viewBox="0 0 77 24" fill="none" xmlns="http://www.w3.org/2000/svg">
<path d="M8.9202 6.05302C9.2678 4.39821 9.03898 3.84105 11.4381 3.84631C14.618 3.85245 21.5411 3.85421 21.5411 3.85421L22.5175 0.00585586L10.2599 0.00761069C8.66081 0.00848811 5.16912 -0.453911 4.21803 5.69152C3.80843 8.33606 3.57873 9.64429 3.5176 10.4919C3.36389 12.6494 5.35078 13.2996 7.02152 13.2996C9.27304 13.2996 14.2844 13.3049 14.2844 13.3049C15.3796 13.3049 15.8276 13.2996 15.6774 14.0954C15.4128 15.4984 14.8494 18.2096 14.6652 19.0248C14.3743 20.3093 12.825 20.1189 11.4398 20.1321H0.91528L0 23.9825H13.179C15.979 23.9825 18.5292 23.0234 19.2279 20.357C19.9397 17.6405 20.3056 15.7909 20.7161 13.6289C21.2069 11.0405 19.5676 9.13655 16.5327 9.13655H10.1292C9.44363 9.13655 8.32137 9.298 8.53883 8.17052C8.63316 7.68355 8.70739 7.09656 8.91962 6.05331" fill="#006BB6"/>
<path d="M37.2392 23.9827H42.1335L39.1204 0.0292535H33.6348L19.7964 23.9827H25.0541C25.0541 23.9827 27.7012 19.4474 27.813 19.2464H35.3981L36.2269 15.6824H29.751C29.7519 15.6815 29.7431 15.6754 29.7431 15.6754C30.1877 14.9375 35.1676 6.76782 35.275 6.57391C35.3003 6.74413 37.2392 23.9833 37.2392 23.9833" fill="#006BB6"/>
<path d="M49.6179 0.00638845L44.3314 23.9833H49.92L55.1107 0.00638845H49.6179Z" fill="#006BB6"/>
<path d="M63.2245 5.96908C63.3861 5.21362 63.5887 3.85187 65.4297 3.85187C66.3835 3.85187 76.0323 3.85099 76.0323 3.85099L77 0.00965743C77 0.00965743 67.5913 0.0131671 64.0551 0.0131671C59.1293 0.0131671 58.8149 4.77403 58.5005 6.35338C58.1852 7.93273 55.9765 17.7949 55.8857 18.2398C55.3119 21.0457 56.794 24 61.0647 24H72.8638L73.759 20.1315H62.9005C60.814 20.1315 60.7608 18.889 61.0647 17.3281L62.1372 11.6661H62.1415C62.1415 11.6661 62.745 8.20737 63.2245 5.96908Z" fill="#006BB6"/>
</svg>
