<svg width="56" height="44" viewBox="0 0 56 44" fill="none" xmlns="http://www.w3.org/2000/svg">
<g clip-path="url(#clip0)">
<path d="M8.24006 32.2925C6.68273 31.5613 5.40387 30.9706 5.40387 29.7754C5.40387 28.8619 6.13165 28.1974 7.56968 28.1974C8.09876 28.1974 8.53124 28.2602 8.97815 28.3424C9.21192 28.3828 9.4615 28.4173 9.66743 28.4173C10.9233 28.4173 11.6321 27.6654 12.1035 26.2382L12.2984 25.6555C12.0979 25.5733 10.0459 24.6685 7.37029 24.6685C3.11361 24.6685 0.866669 27.4099 0.868044 30.2539C0.868044 31.689 1.3153 32.7281 2.01558 33.5474C2.91766 34.6007 4.20408 35.2901 5.40765 35.8794C7.16127 36.7435 8.74404 37.3822 8.74404 38.663C8.74507 39.7991 7.57553 40.4457 6.01202 40.4457C3.86993 40.4457 1.99805 39.216 1.75878 39.0679L0 42.3783C0.31284 42.5557 2.578 43.9998 6.30595 43.9998C10.2783 43.9971 13.2864 41.7103 13.2864 38.191C13.2861 34.6894 10.498 33.3913 8.24006 32.2925Z" fill="#E1002A"/>
<path d="M23.7774 33.9275L30.9834 25.0552H25.849L20.1017 32.7116H20.0158V25.0552H15.7842L15.7852 43.8497H16.0369C17.8665 43.8497 20.0443 42.9998 20.0443 39.9304V35.6154H20.1302L25.9889 43.6157H31.3742L23.7774 33.9275Z" fill="#E1002A"/>
<path d="M31.2233 4.92285C29.7334 5.20525 27.5243 6.56337 27.5315 8.96513C27.5373 11.1459 29.313 12.4678 29.3185 15.3256C29.3271 17.4757 28.1472 18.9232 26.8711 19.7259C27.3868 19.68 27.9516 19.6503 28.5731 19.6489C29.8768 19.6454 30.6626 19.7704 30.7115 19.7784L37.3956 11.5416C35.5392 8.75074 33.3713 6.58512 31.2233 4.92285Z" fill="#E1002A"/>
<path d="M36.8381 27.1663C37.6807 25.851 37.7862 23.7548 37.8577 21.6195C37.9365 19.6279 38.3504 18.1293 41.0037 18.12C41.5915 18.1179 42.1516 18.199 43.1657 18.1963C47.0525 18.179 49.5903 16.835 51.1689 15.953C47.9436 13.8878 43.2358 11.7792 37.3954 11.542C37.0148 12.6201 34.0549 20.8849 33.8311 21.5519C33.8647 21.5919 34.3832 22.1754 35.0305 23.3132C35.9855 24.8761 36.4981 26.2 36.8381 27.1663Z" fill="#E1002A"/>
<path d="M22.7199 20.4154C22.382 20.4175 22.2139 20.192 22.1682 19.8009C22.1252 19.4125 20.4534 4.05436 20.2045 1.72994C20.1684 1.39059 20.0845 0.767449 20.0835 0.545467C20.0828 0.187466 20.3149 0.000697561 20.5885 7.10514e-06C21.3806 -0.00309995 25.6971 1.01222 30.2779 4.2363C28.9582 4.61018 26.5706 5.98868 26.5816 8.84302C26.5902 11.3694 28.3916 12.76 28.4009 15.2946C28.4146 19.4167 23.697 20.4137 22.7199 20.4154Z" fill="#EE7602"/>
<path d="M37.2222 28.2621C37.294 28.4534 37.3617 28.6143 37.4298 28.7268C37.535 28.9063 37.6722 28.9878 37.8406 28.9871C37.9472 28.9857 38.0778 28.9502 38.2222 28.8846C38.5753 28.7216 52.5324 22.1968 54.6373 21.2216C54.9426 21.0745 55.5209 20.8149 55.7117 20.7027C55.9093 20.5898 55.9997 20.4244 55.9997 20.2566C55.9991 20.1627 55.9716 20.0678 55.9186 19.9815C55.6556 19.5541 54.3053 18.1149 52.0477 16.542C50.2548 17.5331 47.4558 19.066 43.2919 19.0829C42.2716 19.0839 42.0406 19.0152 41.3437 19.018C39.311 19.0252 38.8036 19.8983 38.7293 21.6876C38.7169 22.0256 38.7111 22.4806 38.6915 22.9795C38.6272 24.5792 38.4391 26.7856 37.2222 28.2621Z" fill="#EE7602"/>
</g>
<defs>
<clipPath id="clip0">
<rect width="56" height="44" fill="white"/>
</clipPath>
</defs>
</svg>
