<svg width="20" height="20" viewBox="0 0 20 20" fill="none" xmlns="http://www.w3.org/2000/svg">
<rect width="20" height="20" rx="3" fill="#0277B5"/>
<path fill-rule="evenodd" clip-rule="evenodd" d="M4.19918 7.984H6.6862V16.0002H4.19918V7.984ZM8.24512 7.98384H10.6301V9.0789H10.6662C10.9961 8.44922 11.809 7.78625 13.0181 7.78625C15.5352 7.78625 16.0002 9.44534 16.0002 11.6051V16.0001H13.5162V12.103C13.5162 11.1731 13.4982 9.97616 12.2232 9.97616C10.9302 9.97616 10.7322 10.9901 10.7322 12.0339V16H8.24512V7.98384ZM5.44299 4C6.23795 4 6.883 4.64812 6.883 5.44323C6.883 6.24125 6.23795 6.88892 5.44299 6.88892C4.64498 6.88892 4 6.24125 4 5.44323C4 4.64804 4.6449 4 5.44299 4Z" fill="white"/>
</svg>
