<svg width="180" height="75" viewBox="0 0 180 75" fill="none" xmlns="http://www.w3.org/2000/svg">
<path fill-rule="evenodd" clip-rule="evenodd" d="M30.4839 54.4355C43.712 54.4355 54.4355 43.712 54.4355 30.4839C54.4355 17.2558 43.712 6.53226 30.4839 6.53226C17.2558 6.53226 6.53226 17.2558 6.53226 30.4839C6.53226 43.712 17.2558 54.4355 30.4839 54.4355ZM30.4839 60.9677C47.3196 60.9677 60.9677 47.3196 60.9677 30.4839C60.9677 13.6481 47.3196 0 30.4839 0C13.6481 0 0 13.6481 0 30.4839C0 47.3196 13.6481 60.9677 30.4839 60.9677Z" fill="white"/>
<path d="M33.8226 13.7903H27.1452V27.1451L13.7903 27.1451V33.8226H27.1452V47.1774H33.8226V33.8226H47.1774V27.1451L33.8226 27.1451V13.7903Z" fill="#24C765"/>
<path d="M96.256 21.4484H104.813C104.689 13.9223 98.5035 8.72617 89.101 8.72617C79.8428 8.72617 73.059 13.8398 73.1003 21.5103C73.0797 27.7373 77.4716 31.3045 84.606 33.0159L89.2041 34.1706C93.8022 35.2841 96.3591 36.6037 96.3797 39.4492C96.3591 42.5421 93.4311 44.6453 88.8948 44.6453C84.2554 44.6453 80.9151 42.5009 80.6264 38.2739H71.9868C72.2136 47.4083 78.75 52.1302 88.9979 52.1302C99.3077 52.1302 105.37 47.2022 105.39 39.4698C105.37 32.4386 100.071 28.7065 92.73 27.0569L88.936 26.1496C85.2658 25.3042 82.1935 23.9434 82.2553 20.9123C82.2553 18.1905 84.6678 16.1904 89.0391 16.1904C93.3074 16.1904 95.9261 18.1287 96.256 21.4484Z" fill="white"/>
<path d="M109.654 51.5322H138.191V44.1711H118.582V34.0882H136.645V26.727H118.582V16.6647H138.109V9.30351H109.654V51.5322Z" fill="white"/>
<path d="M166.373 21.4484H174.93C174.807 13.9223 168.621 8.72617 159.218 8.72617C149.96 8.72617 143.176 13.8398 143.218 21.5103C143.197 27.7373 147.589 31.3045 154.723 33.0159L159.322 34.1706C163.92 35.2841 166.477 36.6037 166.497 39.4492C166.477 42.5421 163.549 44.6453 159.012 44.6453C154.373 44.6453 151.033 42.5009 150.744 38.2739H142.104C142.331 47.4083 148.867 52.1302 159.115 52.1302C169.425 52.1302 175.487 47.2022 175.508 39.4698C175.487 32.4386 170.188 28.7065 162.847 27.0569L159.053 26.1496C155.383 25.3042 152.311 23.9434 152.373 20.9123C152.373 18.1905 154.785 16.1904 159.157 16.1904C163.425 16.1904 166.044 18.1287 166.373 21.4484Z" fill="white"/>
<path d="M72.4049 71.6774H76.8561C79.5552 71.6774 80.7743 70.3335 80.7743 68.5531C80.7743 66.7555 79.5155 65.7406 78.3644 65.6782V65.5648C79.4305 65.2926 80.3207 64.5668 80.3207 63.1152C80.3207 61.3971 79.1299 60.0645 76.6576 60.0645H72.4049V71.6774ZM74.157 70.1748V66.455H76.7484C78.1546 66.455 79.0335 67.3623 79.0335 68.468C79.0335 69.4433 78.3701 70.1748 76.686 70.1748H74.157ZM74.157 65.0885V61.5558H76.5499C77.9391 61.5558 78.6026 62.2873 78.6026 63.2513C78.6026 64.374 77.684 65.0885 76.5045 65.0885H74.157Z" fill="white"/>
<path d="M86.3105 71.8532C88.2101 71.8532 89.554 70.9176 89.9396 69.5L88.3349 69.2108C88.0287 70.033 87.2915 70.4526 86.3275 70.4526C84.8759 70.4526 83.9006 69.5113 83.8553 67.8329H90.0473V67.2319C90.0473 64.0848 88.1647 62.8543 86.1915 62.8543C83.7645 62.8543 82.1655 64.7029 82.1655 67.3793C82.1655 70.084 83.7419 71.8532 86.3105 71.8532ZM83.8609 66.5628C83.929 65.3266 84.8249 64.2549 86.2028 64.2549C87.5183 64.2549 88.3802 65.2302 88.3859 66.5628H83.8609Z" fill="white"/>
<path d="M92.5754 74.9436C93.976 74.9436 94.8605 74.2121 95.3652 72.8398L98.9659 62.9848L97.1343 62.9677L94.9286 69.7268H94.8378L92.6321 62.9677H90.8176L94.0043 71.7908L93.7945 72.3692C93.3636 73.526 92.7568 73.6224 91.8269 73.3672L91.4186 74.7564C91.6228 74.8472 92.065 74.9436 92.5754 74.9436Z" fill="white"/>
<path d="M103.761 71.8532C106.216 71.8532 107.821 70.0557 107.821 67.3623C107.821 64.6518 106.216 62.8543 103.761 62.8543C101.305 62.8543 99.7007 64.6518 99.7007 67.3623C99.7007 70.0557 101.305 71.8532 103.761 71.8532ZM103.766 70.4299C102.162 70.4299 101.413 69.0294 101.413 67.3566C101.413 65.6895 102.162 64.2719 103.766 64.2719C105.36 64.2719 106.108 65.6895 106.108 67.3566C106.108 69.0294 105.36 70.4299 103.766 70.4299Z" fill="white"/>
<path d="M111.249 66.5061C111.249 65.1168 112.099 64.323 113.279 64.323C114.43 64.323 115.127 65.0771 115.127 66.3416V71.6774H116.823V66.1375C116.823 63.9827 115.638 62.8543 113.857 62.8543C112.547 62.8543 111.691 63.4611 111.289 64.3853H111.181V62.9677H109.553V71.6774H111.249V66.5061Z" fill="white"/>
<path d="M122.197 71.8475C123.785 71.8475 124.409 70.8779 124.715 70.3222H124.857V71.6774H126.513V60.0645H124.817V64.3797H124.715C124.409 63.841 123.831 62.8543 122.209 62.8543C120.105 62.8543 118.557 64.5158 118.557 67.3396C118.557 70.1578 120.082 71.8475 122.197 71.8475ZM122.572 70.4016C121.058 70.4016 120.27 69.0691 120.27 67.3226C120.27 65.5931 121.041 64.2946 122.572 64.2946C124.052 64.2946 124.846 65.5024 124.846 67.3226C124.846 69.1541 124.035 70.4016 122.572 70.4016Z" fill="white"/>
<path d="M132.975 71.6774H139.989V70.1691H134.727V60.0645H132.975V71.6774Z" fill="white"/>
<path d="M141.692 71.6774H143.388V62.9677H141.692V71.6774ZM142.549 61.6239C143.133 61.6239 143.62 61.1702 143.62 60.6145C143.62 60.0588 143.133 59.5995 142.549 59.5995C141.959 59.5995 141.477 60.0588 141.477 60.6145C141.477 61.1702 141.959 61.6239 142.549 61.6239Z" fill="white"/>
<path d="M150.641 66.0354H145.492V67.504H150.641V66.0354Z" fill="white"/>
<path d="M152.741 71.6774H154.436V62.9677H152.741V71.6774ZM153.597 61.6239C154.181 61.6239 154.669 61.1702 154.669 60.6145C154.669 60.0588 154.181 59.5995 153.597 59.5995C153.007 59.5995 152.525 60.0588 152.525 60.6145C152.525 61.1702 153.007 61.6239 153.597 61.6239Z" fill="white"/>
<path d="M160.226 71.8532C162.681 71.8532 164.286 70.0557 164.286 67.3623C164.286 64.6518 162.681 62.8543 160.226 62.8543C157.771 62.8543 156.166 64.6518 156.166 67.3623C156.166 70.0557 157.771 71.8532 160.226 71.8532ZM160.232 70.4299C158.627 70.4299 157.878 69.0294 157.878 67.3566C157.878 65.6895 158.627 64.2719 160.232 64.2719C161.825 64.2719 162.574 65.6895 162.574 67.3566C162.574 69.0294 161.825 70.4299 160.232 70.4299Z" fill="white"/>
<path d="M167.714 66.5061C167.714 65.1168 168.565 64.323 169.744 64.323C170.895 64.323 171.593 65.0771 171.593 66.3416V71.6774H173.288V66.1375C173.288 63.9827 172.103 62.8543 170.323 62.8543C169.013 62.8543 168.156 63.4611 167.754 64.3853H167.646V62.9677H166.019V71.6774H167.714V66.5061Z" fill="white"/>
<path d="M173.641 60.2815H174.62V62.9677H175.189V60.2815H176.168V59.8006H173.641V60.2815Z" fill="white"/>
<path d="M176.568 59.8006V62.9677H177.118V60.7872H177.148L178.023 62.9585H178.435L179.31 60.7919H179.339V62.9677H179.89V59.8006H179.188L178.247 62.0955H178.21L177.27 59.8006H176.568Z" fill="white"/>
</svg>
